<svg width="414" height="251" viewBox="0 0 414 251" fill="none" xmlns="http://www.w3.org/2000/svg">
<line y1="5" x2="251" y2="5" stroke="#BDE0FE" stroke-opacity="0.5" stroke-width="10"/>
<line x1="246" y1="10" x2="246" y2="251" stroke="#BDE0FE" stroke-opacity="0.5" stroke-width="10"/>
<line y1="246" x2="241" y2="246" stroke="#BDE0FE" stroke-opacity="0.5" stroke-width="10"/>
<path d="M165.175 68C166.192 68.2167 167.008 68.725 167.625 69.525C168.242 70.3083 168.55 71.2083 168.55 72.225C168.55 73.6917 168.033 74.8583 167 75.725C165.983 76.575 164.558 77 162.725 77H154.55V59.45H162.45C164.233 59.45 165.625 59.8583 166.625 60.675C167.642 61.4917 168.15 62.6 168.15 64C168.15 65.0333 167.875 65.8917 167.325 66.575C166.792 67.2583 166.075 67.7333 165.175 68ZM158.825 66.55H161.625C162.325 66.55 162.858 66.4 163.225 66.1C163.608 65.7833 163.8 65.325 163.8 64.725C163.8 64.125 163.608 63.6667 163.225 63.35C162.858 63.0333 162.325 62.875 161.625 62.875H158.825V66.55ZM161.975 73.55C162.692 73.55 163.242 73.3917 163.625 73.075C164.025 72.7417 164.225 72.2667 164.225 71.65C164.225 71.0333 164.017 70.55 163.6 70.2C163.2 69.85 162.642 69.675 161.925 69.675H158.825V73.55H161.975ZM179.329 77.175C177.679 77.175 176.163 76.7917 174.779 76.025C173.413 75.2583 172.321 74.1917 171.504 72.825C170.704 71.4417 170.304 69.8917 170.304 68.175C170.304 66.4583 170.704 64.9167 171.504 63.55C172.321 62.1833 173.413 61.1167 174.779 60.35C176.163 59.5833 177.679 59.2 179.329 59.2C180.979 59.2 182.488 59.5833 183.854 60.35C185.238 61.1167 186.321 62.1833 187.104 63.55C187.904 64.9167 188.304 66.4583 188.304 68.175C188.304 69.8917 187.904 71.4417 187.104 72.825C186.304 74.1917 185.221 75.2583 183.854 76.025C182.488 76.7917 180.979 77.175 179.329 77.175ZM179.329 73.275C180.729 73.275 181.846 72.8083 182.679 71.875C183.529 70.9417 183.954 69.7083 183.954 68.175C183.954 66.625 183.529 65.3917 182.679 64.475C181.846 63.5417 180.729 63.075 179.329 63.075C177.913 63.075 176.779 63.5333 175.929 64.45C175.096 65.3667 174.679 66.6083 174.679 68.175C174.679 69.725 175.096 70.9667 175.929 71.9C176.779 72.8167 177.913 73.275 179.329 73.275ZM202.333 65C202.016 64.4167 201.558 63.975 200.958 63.675C200.374 63.3583 199.683 63.2 198.883 63.2C197.499 63.2 196.391 63.6583 195.558 64.575C194.724 65.475 194.308 66.6833 194.308 68.2C194.308 69.8167 194.741 71.0833 195.608 72C196.491 72.9 197.699 73.35 199.233 73.35C200.283 73.35 201.166 73.0833 201.883 72.55C202.616 72.0167 203.149 71.25 203.483 70.25H198.058V67.1H207.358V71.075C207.041 72.1417 206.499 73.1333 205.733 74.05C204.983 74.9667 204.024 75.7083 202.858 76.275C201.691 76.8417 200.374 77.125 198.908 77.125C197.174 77.125 195.624 76.75 194.258 76C192.908 75.2333 191.849 74.175 191.083 72.825C190.333 71.475 189.958 69.9333 189.958 68.2C189.958 66.4667 190.333 64.925 191.083 63.575C191.849 62.2083 192.908 61.15 194.258 60.4C195.608 59.6333 197.149 59.25 198.883 59.25C200.983 59.25 202.749 59.7583 204.183 60.775C205.633 61.7917 206.591 63.2 207.058 65H202.333ZM216.301 59.45C218.151 59.45 219.767 59.8167 221.151 60.55C222.534 61.2833 223.601 62.3167 224.351 63.65C225.117 64.9667 225.501 66.4917 225.501 68.225C225.501 69.9417 225.117 71.4667 224.351 72.8C223.601 74.1333 222.526 75.1667 221.126 75.9C219.742 76.6333 218.134 77 216.301 77H209.726V59.45H216.301ZM216.026 73.3C217.642 73.3 218.901 72.8583 219.801 71.975C220.701 71.0917 221.151 69.8417 221.151 68.225C221.151 66.6083 220.701 65.35 219.801 64.45C218.901 63.55 217.642 63.1 216.026 63.1H214.001V73.3H216.026ZM238.815 73.9H232.265L231.215 77H226.74L233.09 59.45H238.04L244.39 77H239.865L238.815 73.9ZM237.715 70.6L235.54 64.175L233.39 70.6H237.715ZM262.022 77H257.747L250.597 66.175V77H246.322V59.45H250.597L257.747 70.325V59.45H262.022V77ZM274.694 73.7H280.294V77H270.419V59.45H274.694V73.7ZM286.533 59.45V69.95C286.533 71 286.792 71.8083 287.308 72.375C287.825 72.9417 288.583 73.225 289.583 73.225C290.583 73.225 291.35 72.9417 291.883 72.375C292.417 71.8083 292.683 71 292.683 69.95V59.45H296.958V69.925C296.958 71.4917 296.625 72.8167 295.958 73.9C295.292 74.9833 294.392 75.8 293.258 76.35C292.142 76.9 290.892 77.175 289.508 77.175C288.125 77.175 286.883 76.9083 285.783 76.375C284.7 75.825 283.842 75.0083 283.208 73.925C282.575 72.825 282.258 71.4917 282.258 69.925V59.45H286.533ZM299.235 68.2C299.235 66.4667 299.61 64.925 300.36 63.575C301.11 62.2083 302.152 61.15 303.485 60.4C304.835 59.6333 306.36 59.25 308.06 59.25C310.143 59.25 311.927 59.8 313.41 60.9C314.893 62 315.885 63.5 316.385 65.4H311.685C311.335 64.6667 310.835 64.1083 310.185 63.725C309.552 63.3417 308.827 63.15 308.01 63.15C306.693 63.15 305.627 63.6083 304.81 64.525C303.993 65.4417 303.585 66.6667 303.585 68.2C303.585 69.7333 303.993 70.9583 304.81 71.875C305.627 72.7917 306.693 73.25 308.01 73.25C308.827 73.25 309.552 73.0583 310.185 72.675C310.835 72.2917 311.335 71.7333 311.685 71H316.385C315.885 72.9 314.893 74.4 313.41 75.5C311.927 76.5833 310.143 77.125 308.06 77.125C306.36 77.125 304.835 76.75 303.485 76C302.152 75.2333 301.11 74.175 300.36 72.825C299.61 71.475 299.235 69.9333 299.235 68.2ZM323.278 59.45V77H319.003V59.45H323.278ZM337.301 73.9H330.751L329.701 77H325.226L331.576 59.45H336.526L342.876 77H338.351L337.301 73.9ZM336.201 70.6L334.026 64.175L331.876 70.6H336.201ZM360.509 77H356.234L349.084 66.175V77H344.809V59.45H349.084L356.234 70.325V59.45H360.509V77Z" fill="black"/>
<path d="M70.7627 172.203V180.904C70.7568 182.111 70.376 183.099 69.6201 183.866C68.8701 184.634 67.8506 185.064 66.5615 185.158L66.1133 185.176C64.7129 185.176 63.5967 184.798 62.7646 184.042C61.9326 183.286 61.5107 182.246 61.499 180.922V172.203H63.1689V180.869C63.1689 181.795 63.4238 182.516 63.9336 183.031C64.4434 183.541 65.1699 183.796 66.1133 183.796C67.0684 183.796 67.7979 183.541 68.3018 183.031C68.8115 182.521 69.0664 181.804 69.0664 180.878V172.203H70.7627ZM75.2363 185H73.5488V172.203H75.2363V185ZM78.4004 186.099H77.0029L82.3467 172.203H83.7354L78.4004 186.099ZM94.7568 172.203V180.904C94.751 182.111 94.3701 183.099 93.6143 183.866C92.8643 184.634 91.8447 185.064 90.5557 185.158L90.1074 185.176C88.707 185.176 87.5908 184.798 86.7588 184.042C85.9268 183.286 85.5049 182.246 85.4932 180.922V172.203H87.1631V180.869C87.1631 181.795 87.418 182.516 87.9277 183.031C88.4375 183.541 89.1641 183.796 90.1074 183.796C91.0625 183.796 91.792 183.541 92.2959 183.031C92.8057 182.521 93.0605 181.804 93.0605 180.878V172.203H94.7568ZM101.595 177.107L104.662 172.203H106.648L102.605 178.549L106.745 185H104.741L101.595 180.008L98.4307 185H96.4355L100.584 178.549L96.5322 172.203H98.5098L101.595 177.107ZM112.52 180.166C112.52 178.707 112.865 177.535 113.557 176.65C114.248 175.76 115.153 175.314 116.272 175.314C117.386 175.314 118.268 175.695 118.918 176.457V171.5H120.544V185H119.05L118.971 183.98C118.32 184.777 117.415 185.176 116.255 185.176C115.153 185.176 114.254 184.725 113.557 183.822C112.865 182.92 112.52 181.742 112.52 180.289V180.166ZM114.146 180.351C114.146 181.429 114.368 182.272 114.813 182.882C115.259 183.491 115.874 183.796 116.659 183.796C117.69 183.796 118.443 183.333 118.918 182.407V178.039C118.432 177.143 117.685 176.694 116.677 176.694C115.88 176.694 115.259 177.002 114.813 177.617C114.368 178.232 114.146 179.144 114.146 180.351ZM127.021 185.176C125.732 185.176 124.684 184.754 123.875 183.91C123.066 183.061 122.662 181.927 122.662 180.509V180.21C122.662 179.267 122.841 178.426 123.198 177.688C123.562 176.943 124.065 176.363 124.71 175.947C125.36 175.525 126.063 175.314 126.819 175.314C128.056 175.314 129.017 175.722 129.702 176.536C130.388 177.351 130.73 178.517 130.73 180.034V180.711H124.288C124.312 181.648 124.584 182.407 125.105 182.987C125.633 183.562 126.301 183.849 127.109 183.849C127.684 183.849 128.17 183.731 128.568 183.497C128.967 183.263 129.315 182.952 129.614 182.565L130.607 183.339C129.811 184.563 128.615 185.176 127.021 185.176ZM126.819 176.65C126.163 176.65 125.612 176.891 125.167 177.371C124.722 177.846 124.446 178.514 124.341 179.375H129.104V179.252C129.058 178.426 128.835 177.787 128.437 177.336C128.038 176.879 127.499 176.65 126.819 176.65ZM138.157 182.478C138.157 182.038 137.99 181.698 137.656 181.458C137.328 181.212 136.751 181.001 135.925 180.825C135.104 180.649 134.451 180.438 133.965 180.192C133.484 179.946 133.127 179.653 132.893 179.313C132.664 178.974 132.55 178.569 132.55 178.101C132.55 177.321 132.878 176.662 133.534 176.123C134.196 175.584 135.04 175.314 136.065 175.314C137.144 175.314 138.017 175.593 138.685 176.149C139.358 176.706 139.695 177.418 139.695 178.285H138.061C138.061 177.84 137.87 177.456 137.489 177.134C137.114 176.812 136.64 176.65 136.065 176.65C135.474 176.65 135.011 176.779 134.677 177.037C134.343 177.295 134.176 177.632 134.176 178.048C134.176 178.44 134.331 178.736 134.642 178.936C134.952 179.135 135.512 179.325 136.32 179.507C137.135 179.688 137.794 179.905 138.298 180.157C138.802 180.409 139.174 180.714 139.414 181.071C139.66 181.423 139.783 181.854 139.783 182.363C139.783 183.213 139.443 183.896 138.764 184.411C138.084 184.921 137.202 185.176 136.118 185.176C135.356 185.176 134.683 185.041 134.097 184.771C133.511 184.502 133.051 184.127 132.717 183.646C132.389 183.16 132.225 182.636 132.225 182.073H133.851C133.88 182.618 134.097 183.052 134.501 183.374C134.911 183.69 135.45 183.849 136.118 183.849C136.733 183.849 137.226 183.726 137.595 183.479C137.97 183.228 138.157 182.894 138.157 182.478ZM143.668 185H142.042V175.49H143.668V185ZM141.91 172.968C141.91 172.704 141.989 172.481 142.147 172.3C142.312 172.118 142.552 172.027 142.868 172.027C143.185 172.027 143.425 172.118 143.589 172.3C143.753 172.481 143.835 172.704 143.835 172.968C143.835 173.231 143.753 173.451 143.589 173.627C143.425 173.803 143.185 173.891 142.868 173.891C142.552 173.891 142.312 173.803 142.147 173.627C141.989 173.451 141.91 173.231 141.91 172.968ZM145.892 180.166C145.892 178.684 146.234 177.506 146.92 176.633C147.605 175.754 148.514 175.314 149.645 175.314C150.805 175.314 151.71 175.725 152.36 176.545L152.439 175.49H153.925V184.771C153.925 186.002 153.559 186.972 152.826 187.681C152.1 188.39 151.121 188.744 149.891 188.744C149.205 188.744 148.534 188.598 147.878 188.305C147.222 188.012 146.721 187.61 146.375 187.101L147.219 186.125C147.916 186.986 148.769 187.417 149.776 187.417C150.567 187.417 151.183 187.194 151.622 186.749C152.067 186.304 152.29 185.677 152.29 184.868V184.051C151.64 184.801 150.752 185.176 149.627 185.176C148.514 185.176 147.611 184.728 146.92 183.831C146.234 182.935 145.892 181.713 145.892 180.166ZM147.526 180.351C147.526 181.423 147.746 182.267 148.186 182.882C148.625 183.491 149.24 183.796 150.031 183.796C151.057 183.796 151.81 183.33 152.29 182.398V178.057C151.792 177.148 151.045 176.694 150.049 176.694C149.258 176.694 148.64 177.002 148.194 177.617C147.749 178.232 147.526 179.144 147.526 180.351ZM157.924 175.49L157.977 176.686C158.703 175.771 159.652 175.314 160.824 175.314C162.834 175.314 163.848 176.448 163.865 178.716V185H162.239V178.707C162.233 178.021 162.075 177.515 161.765 177.187C161.46 176.858 160.982 176.694 160.332 176.694C159.805 176.694 159.342 176.835 158.943 177.116C158.545 177.397 158.234 177.767 158.012 178.224V185H156.386V175.49H157.924ZM170.264 185.176C168.975 185.176 167.926 184.754 167.117 183.91C166.309 183.061 165.904 181.927 165.904 180.509V180.21C165.904 179.267 166.083 178.426 166.44 177.688C166.804 176.943 167.308 176.363 167.952 175.947C168.603 175.525 169.306 175.314 170.062 175.314C171.298 175.314 172.259 175.722 172.944 176.536C173.63 177.351 173.973 178.517 173.973 180.034V180.711H167.53C167.554 181.648 167.826 182.407 168.348 182.987C168.875 183.562 169.543 183.849 170.352 183.849C170.926 183.849 171.412 183.731 171.811 183.497C172.209 183.263 172.558 182.952 172.856 182.565L173.85 183.339C173.053 184.563 171.857 185.176 170.264 185.176ZM170.062 176.65C169.405 176.65 168.854 176.891 168.409 177.371C167.964 177.846 167.688 178.514 167.583 179.375H172.347V179.252C172.3 178.426 172.077 177.787 171.679 177.336C171.28 176.879 170.741 176.65 170.062 176.65ZM180.459 176.949C180.213 176.908 179.946 176.888 179.659 176.888C178.593 176.888 177.869 177.342 177.488 178.25V185H175.862V175.49H177.444L177.471 176.589C178.004 175.739 178.76 175.314 179.738 175.314C180.055 175.314 180.295 175.355 180.459 175.438V176.949ZM109.83 200.34L115.332 202.563V204.286L108.143 200.955V199.672L115.332 196.35V198.072L109.83 200.34ZM118.224 207.099H116.826L122.17 193.203H123.559L118.224 207.099ZM131.073 200.287L125.264 198.011V196.341L132.77 199.663V200.946L125.264 204.277V202.59L131.073 200.287ZM95.8027 227H94.1768V213.5H95.8027V227ZM102.359 227.176C101.07 227.176 100.021 226.754 99.2129 225.91C98.4043 225.061 98 223.927 98 222.509V222.21C98 221.267 98.1787 220.426 98.5361 219.688C98.8994 218.943 99.4033 218.363 100.048 217.947C100.698 217.525 101.401 217.314 102.157 217.314C103.394 217.314 104.354 217.722 105.04 218.536C105.726 219.351 106.068 220.517 106.068 222.034V222.711H99.626C99.6494 223.648 99.9219 224.407 100.443 224.987C100.971 225.562 101.639 225.849 102.447 225.849C103.021 225.849 103.508 225.731 103.906 225.497C104.305 225.263 104.653 224.952 104.952 224.565L105.945 225.339C105.148 226.563 103.953 227.176 102.359 227.176ZM102.157 218.65C101.501 218.65 100.95 218.891 100.505 219.371C100.06 219.846 99.7842 220.514 99.6787 221.375H104.442V221.252C104.396 220.426 104.173 219.787 103.774 219.336C103.376 218.879 102.837 218.65 102.157 218.65ZM113.829 227C113.735 226.812 113.659 226.479 113.601 225.998C112.845 226.783 111.942 227.176 110.894 227.176C109.956 227.176 109.186 226.912 108.582 226.385C107.984 225.852 107.686 225.178 107.686 224.363C107.686 223.373 108.061 222.605 108.811 222.061C109.566 221.51 110.627 221.234 111.992 221.234H113.574V220.487C113.574 219.919 113.404 219.468 113.064 219.134C112.725 218.794 112.224 218.624 111.562 218.624C110.981 218.624 110.495 218.771 110.103 219.063C109.71 219.356 109.514 219.711 109.514 220.127H107.879C107.879 219.652 108.046 219.195 108.38 218.756C108.72 218.311 109.177 217.959 109.751 217.701C110.331 217.443 110.967 217.314 111.658 217.314C112.754 217.314 113.612 217.59 114.233 218.141C114.854 218.686 115.177 219.438 115.2 220.399V224.776C115.2 225.649 115.312 226.344 115.534 226.859V227H113.829ZM111.131 225.761C111.641 225.761 112.124 225.629 112.581 225.365C113.038 225.102 113.369 224.759 113.574 224.337V222.386H112.3C110.308 222.386 109.312 222.969 109.312 224.135C109.312 224.645 109.481 225.043 109.821 225.33C110.161 225.617 110.598 225.761 111.131 225.761ZM122.346 218.949C122.1 218.908 121.833 218.888 121.546 218.888C120.479 218.888 119.756 219.342 119.375 220.25V227H117.749V217.49H119.331L119.357 218.589C119.891 217.739 120.646 217.314 121.625 217.314C121.941 217.314 122.182 217.355 122.346 217.438V218.949ZM125.387 217.49L125.439 218.686C126.166 217.771 127.115 217.314 128.287 217.314C130.297 217.314 131.311 218.448 131.328 220.716V227H129.702V220.707C129.696 220.021 129.538 219.515 129.228 219.187C128.923 218.858 128.445 218.694 127.795 218.694C127.268 218.694 126.805 218.835 126.406 219.116C126.008 219.397 125.697 219.767 125.475 220.224V227H123.849V217.49H125.387ZM137.727 227.176C136.438 227.176 135.389 226.754 134.58 225.91C133.771 225.061 133.367 223.927 133.367 222.509V222.21C133.367 221.267 133.546 220.426 133.903 219.688C134.267 218.943 134.771 218.363 135.415 217.947C136.065 217.525 136.769 217.314 137.524 217.314C138.761 217.314 139.722 217.722 140.407 218.536C141.093 219.351 141.436 220.517 141.436 222.034V222.711H134.993C135.017 223.648 135.289 224.407 135.811 224.987C136.338 225.562 137.006 225.849 137.814 225.849C138.389 225.849 138.875 225.731 139.273 225.497C139.672 225.263 140.021 224.952 140.319 224.565L141.312 225.339C140.516 226.563 139.32 227.176 137.727 227.176ZM137.524 218.65C136.868 218.65 136.317 218.891 135.872 219.371C135.427 219.846 135.151 220.514 135.046 221.375H139.81V221.252C139.763 220.426 139.54 219.787 139.142 219.336C138.743 218.879 138.204 218.65 137.524 218.65ZM147.922 218.949C147.676 218.908 147.409 218.888 147.122 218.888C146.056 218.888 145.332 219.342 144.951 220.25V227H143.325V217.49H144.907L144.934 218.589C145.467 217.739 146.223 217.314 147.201 217.314C147.518 217.314 147.758 217.355 147.922 217.438V218.949Z" fill="#9E9E9E"/>
</svg>
